<mxfile host="app.diagrams.net" modified="2024-05-16T08:26:22.640Z" agent="Mozilla/5.0 (Macintosh; Intel Mac OS X 10_15_7) AppleWebKit/537.36 (KHTML, like Gecko) Chrome/124.0.0.0 Safari/537.36" version="24.4.2" etag="4TophqqTd_it22Mk3Ajj" type="github">
  <diagram name="第 1 页" id="hgLZSb0Dxp2ZYe8zkw-M">
    <mxGraphModel>
      <root>
        <mxCell id="0" />
        <mxCell id="1" parent="0" />
      </root>
    </mxGraphModel>
  </diagram>
</mxfile>
